HIERARCHY
ROOT SpineBase
{
  OFFSET 0.000000 0.000000 0.000000
  CHANNELS 6 Xposition Yposition Zposition Zrotation Xrotation Yrotation
  JOINT SpineMid
  {
    OFFSET 0.000000 31.016472 0.000000
    CHANNELS 3 Zrotation Xrotation Yrotation
    JOINT SpineShoulder
    {
      OFFSET -0.265314 22.976898 -0.849882
      CHANNELS 3 Zrotation Xrotation Yrotation
      JOINT Neck
      {
        OFFSET -0.039476 7.632966 -0.655357
        CHANNELS 3 Zrotation Xrotation Yrotation
        JOINT Head
        {
          OFFSET 2.112311 14.349128 0.610033
          CHANNELS 3 Zrotation Xrotation Yrotation
          End Site
          {
            OFFSET 0 0 0
          }
        }
      }
      JOINT ShoulderLeft
      {
        OFFSET -12.166522 -2.944408 -9.196118
        CHANNELS 3 Zrotation Xrotation Yrotation
        JOINT ElbowLeft
        {
          OFFSET -5.089162 -28.911589 -2.352948
          CHANNELS 3 Zrotation Xrotation Yrotation
          JOINT WristLeft
          {
            OFFSET -2.317803 -23.538086 -6.940575
            CHANNELS 3 Zrotation Xrotation Yrotation
            JOINT HandLeft
            {
              OFFSET -2.302277 -6.715653 -3.201381
              CHANNELS 3 Zrotation Xrotation Yrotation
              JOINT HandTipLeft
              {
                OFFSET 0.656674 -7.020425 -4.677756
                CHANNELS 3 Zrotation Xrotation Yrotation
                End Site
                {
                  OFFSET 0 0 0
                }
              }
              JOINT ThumbLeft
              {
                OFFSET -1.794253 0.491836 -4.304442
                CHANNELS 3 Zrotation Xrotation Yrotation
                End Site
                {
                  OFFSET 0 0 0
                }
              }
            }
          }
        }
      }
      JOINT ShoulderRight
      {
        OFFSET 14.100243 -3.411862 6.645754
        CHANNELS 3 Zrotation Xrotation Yrotation
        JOINT ElbowRight
        {
          OFFSET 5.572552 -30.224445 7.301466
          CHANNELS 3 Zrotation Xrotation Yrotation
          JOINT WristRight
          {
            OFFSET 5.187538 -23.673563 1.716905
            CHANNELS 3 Zrotation Xrotation Yrotation
            JOINT HandRight
            {
              OFFSET 2.178952 -6.302544 -0.208449
              CHANNELS 3 Zrotation Xrotation Yrotation
              JOINT HandTipRight
              {
                OFFSET -0.369661 -3.032116 0.975981
                CHANNELS 3 Zrotation Xrotation Yrotation
                End Site
                {
                  OFFSET 0 0 0
                }
              }
              JOINT ThumbRight
              {
                OFFSET -2.460417 -1.601056 0.791870
                CHANNELS 3 Zrotation Xrotation Yrotation
                End Site
                {
                  OFFSET 0 0 0
                }
              }
            }
          }
        }
      }
    }
  }
  JOINT HipLeft
  {
    OFFSET -5.877179 1.660053 -5.941138
    CHANNELS 3 Zrotation Xrotation Yrotation
    JOINT KneeLeft
    {
      OFFSET -6.040033 -34.551896 -2.945896
      CHANNELS 3 Zrotation Xrotation Yrotation
      JOINT AnkleLeft
      {
        OFFSET -3.526655 -39.961316 11.811534
        CHANNELS 3 Zrotation Xrotation Yrotation
        JOINT FootLeft
        {
          OFFSET 3.819320 -6.355035 -5.778734
          CHANNELS 3 Zrotation Xrotation Yrotation
          End Site
          {
            OFFSET 0 0 0
          }
        }
      }
    }
  }
  JOINT HipRight
  {
    OFFSET 5.797446 0.642132 -0.924235
    CHANNELS 3 Zrotation Xrotation Yrotation
    JOINT KneeRight
    {
      OFFSET 1.673368 -35.224810 6.506161
      CHANNELS 3 Zrotation Xrotation Yrotation
      JOINT AnkleRight
      {
        OFFSET -7.266460 -34.342026 7.056760
        CHANNELS 3 Zrotation Xrotation Yrotation
        JOINT FootRight
        {
          OFFSET 11.344302 7.495176 0.869117
          CHANNELS 3 Zrotation Xrotation Yrotation
          End Site
          {
            OFFSET 0 0 0
          }
        }
      }
    }
  }
}
MOTION
Frames: 11
Frame Time: 0.033333
4.829232 83.096701 317.578968 -0.986299 -3.729861 -26.652628 0.931456 1.324816 26.552056 -0.409599 0.169997 0.016732 0.221757 5.881460 -0.472062 0.000000 0.000000 0.000000 24.962247 48.624611 -22.297955 6.808695 -8.559108 4.269974 -11.485876 -10.062980 -7.179086 -12.376223 -3.166397 14.285789 0.000000 0.000000 0.000000 0.000000 0.000000 0.000000 0.094759 -5.523092 -1.463596 -4.542020 -3.787076 -1.296300 -12.839831 -15.453382 -7.419858 41.790823 45.248083 -5.991526 0.000000 0.000000 0.000000 0.000000 0.000000 0.000000 4.806733 -2.374105 27.798294 -10.481691 11.404112 -2.404255 15.295656 5.979212 1.396328 0.000000 0.000000 0.000000 2.886155 -4.191001 26.196779 -1.832476 13.721654 -0.615550 8.086915 -6.421406 4.184100 0.000000 0.000000 0.000000
4.829984 83.499443 317.439017 -1.347586 -3.954076 -27.252659 1.168107 1.384685 27.117034 -0.355725 0.134927 0.017051 0.455430 6.594302 -0.547580 0.000000 0.000000 0.000000 34.288891 50.268961 -28.786751 10.348694 -7.549177 4.703819 -10.075942 -9.471879 -9.592535 -12.899162 -1.606589 14.242102 0.000000 0.000000 0.000000 0.000000 0.000000 0.000000 0.318349 -5.731927 -1.511944 -7.442728 -5.747790 -1.956829 -12.073272 -11.945495 -5.609991 44.581646 44.234520 -6.667244 0.000000 0.000000 0.000000 0.000000 0.000000 0.000000 5.148183 -2.562431 28.488410 -10.063297 12.308415 -2.426155 21.539322 12.476127 -1.209353 0.000000 0.000000 0.000000 2.242932 -4.007179 26.607995 0.010891 13.255519 -0.473462 8.481579 -6.484600 4.401587 0.000000 0.000000 0.000000
4.553474 83.909361 317.257512 -1.811481 -4.084552 -29.675769 1.213821 1.339197 29.500714 -0.198136 0.102281 0.007929 0.749709 7.199996 -0.585185 0.000000 0.000000 0.000000 43.770359 50.795353 -35.199356 14.631367 -7.801830 5.946757 -9.527811 -8.992637 -11.584236 -12.913592 -4.659809 14.056642 0.000000 0.000000 0.000000 0.000000 0.000000 0.000000 0.616937 -5.635699 -1.523061 -10.043770 -8.025409 -2.779246 -11.500588 -9.059839 -4.043887 48.920839 44.236551 -8.222917 0.000000 0.000000 0.000000 0.000000 0.000000 0.000000 6.137415 -2.634458 30.995586 -10.010187 13.295566 -2.398310 23.819393 14.894891 -2.304863 0.000000 0.000000 0.000000 1.230685 -3.532096 28.795715 2.936171 12.063575 -0.226280 7.745753 -6.302264 4.203870 0.000000 0.000000 0.000000
4.039028 84.095072 316.873752 -2.293774 -3.895079 -31.508498 1.098545 1.028174 31.305015 0.091975 0.041003 -0.011357 1.306276 7.437363 -0.594893 0.000000 0.000000 0.000000 50.298586 49.617861 -38.680487 18.948313 -6.727098 6.436606 -10.548864 -9.763751 -12.692128 -11.137422 -2.660899 12.805043 0.000000 0.000000 0.000000 0.000000 0.000000 0.000000 1.066111 -5.625622 -1.518199 -12.598589 -10.110376 -3.644027 -9.134663 -4.506011 -1.732493 47.446286 43.424883 -7.540967 0.000000 0.000000 0.000000 0.000000 0.000000 0.000000 7.604356 -2.806128 32.897751 -10.170004 14.079112 -2.296072 23.995518 16.092203 -2.403025 0.000000 0.000000 0.000000 0.249726 -3.669721 30.362775 6.341300 10.945879 0.157895 6.271329 -5.882750 3.667470 0.000000 0.000000 0.000000
3.520383 83.956487 316.300933 -2.492655 -3.372211 -33.739591 0.723773 0.429495 33.537405 0.473934 -0.041797 -0.032674 1.840054 7.199036 -0.557715 0.000000 0.000000 0.000000 53.032417 48.251410 -39.335184 23.940354 -5.640636 7.013874 -2.007146 -15.885196 -8.026174 -19.150967 1.341381 9.625999 0.000000 0.000000 0.000000 0.000000 0.000000 0.000000 1.501199 -5.747839 -1.502920 -14.776574 -11.488751 -4.325021 -6.780474 -0.550846 0.109379 42.665954 44.444033 -6.679313 0.000000 0.000000 0.000000 0.000000 0.000000 0.000000 9.165939 -3.161649 35.251462 -10.502714 14.495379 -2.160871 26.860892 20.122112 -3.992170 0.000000 0.000000 0.000000 -0.702658 -4.627545 32.298062 9.912926 10.298705 0.572046 4.187385 -5.385237 2.805193 0.000000 0.000000 0.000000
4.056726 83.800217 315.821367 -1.282038 -2.975953 -36.203977 -0.148506 -0.358210 36.080286 0.458475 0.047783 -0.030972 1.774303 6.675365 -0.517901 0.000000 0.000000 0.000000 55.965696 46.677915 -40.268883 26.011490 -6.755625 8.057672 16.250397 -18.448906 -2.235620 -31.946131 4.082556 6.694095 0.000000 0.000000 0.000000 0.000000 0.000000 0.000000 1.431804 -5.986080 -1.497532 -16.709692 -12.680157 -4.982028 -3.831514 2.826351 1.320904 33.371277 43.609935 -4.041582 0.000000 0.000000 0.000000 0.000000 0.000000 0.000000 9.524394 -3.101829 37.763184 -13.623259 13.234438 -2.043395 26.234506 18.829337 -2.972547 0.000000 0.000000 0.000000 -5.349272 -7.585328 33.873407 17.401766 9.047819 1.598310 0.467615 -4.439118 1.379220 0.000000 0.000000 0.000000
3.859487 83.555705 315.565687 -1.212546 -2.827673 -38.613818 -0.323841 -0.397184 38.496778 0.602871 0.056887 -0.027656 1.381201 6.021008 -0.412913 0.000000 0.000000 0.000000 55.901369 44.800732 -38.869399 25.843798 -5.809469 6.551364 21.325553 -22.542907 5.375781 -32.205681 7.898372 3.358759 0.000000 0.000000 0.000000 0.000000 0.000000 0.000000 1.381393 -6.228279 -1.498098 -17.829730 -13.351771 -5.375648 -3.614840 2.027883 0.890620 32.396973 48.658172 -4.758088 0.000000 0.000000 0.000000 0.000000 0.000000 0.000000 9.927455 -3.774173 40.448368 -12.280360 14.381649 -2.052095 25.516649 18.396935 -3.229645 0.000000 0.000000 0.000000 -5.480547 -8.860275 36.033131 19.453006 10.116616 1.541920 -1.474308 -4.597129 0.607389 0.000000 0.000000 0.000000
3.640299 83.230277 315.364657 -1.182831 -2.665988 -38.973357 -0.424122 -0.450216 38.859464 0.700126 0.070097 -0.025705 1.137146 5.462477 -0.332250 0.000000 0.000000 0.000000 56.420575 43.320070 -38.130033 23.918182 -5.693288 5.254066 28.589674 -21.098045 5.493035 -41.436639 6.905831 5.459243 0.000000 0.000000 0.000000 0.000000 0.000000 0.000000 1.359851 -6.431764 -1.499749 -17.774478 -13.447215 -5.405243 -1.524963 1.433795 -0.063850 26.425194 50.924693 -3.131808 0.000000 0.000000 0.000000 0.000000 0.000000 0.000000 10.628420 -3.644954 40.802476 -12.973963 14.669106 -1.938577 25.489078 18.450140 -3.058656 0.000000 0.000000 0.000000 -5.374801 -9.174477 36.352362 19.918112 10.252956 1.546619 -2.526955 -4.166476 -0.210887 0.000000 0.000000 0.000000
3.373981 82.861835 315.271302 -1.222712 -2.546978 -36.440015 -0.443583 -0.355608 36.327992 0.751533 0.106932 -0.021781 0.857586 4.907935 -0.260990 0.000000 0.000000 0.000000 54.260275 41.756821 -35.590263 23.118162 -4.210562 3.246943 13.792266 -20.186892 -0.406768 -28.925612 1.926086 7.086514 0.000000 0.000000 0.000000 0.000000 0.000000 0.000000 1.299394 -6.650576 -1.502980 -17.231185 -13.387242 -5.313964 -0.876462 9.454704 3.838326 26.671448 37.241239 -2.388785 0.000000 0.000000 0.000000 0.000000 0.000000 0.000000 10.633812 -3.390695 38.089023 -13.498654 14.138882 -1.839621 25.615939 18.265970 -3.218792 0.000000 0.000000 0.000000 -4.133874 -8.871224 34.086776 17.732658 11.034424 1.170036 -2.175440 -4.224235 -0.046524 0.000000 0.000000 0.000000
3.415423 82.427326 315.365453 -0.875516 -2.552859 -33.599679 -0.569681 -0.295251 33.508838 0.739889 0.176283 -0.008425 0.222654 4.421693 -0.192765 0.000000 0.000000 0.000000 50.158416 40.536256 -32.341975 19.469995 -4.172167 1.853110 9.219606 -17.878396 -3.841404 -25.386758 -1.999638 9.464282 0.000000 0.000000 0.000000 0.000000 0.000000 0.000000 1.099965 -7.219911 -1.572969 -17.490113 -13.366667 -5.290557 -1.083593 10.375406 4.376579 24.872987 40.654367 -3.081856 0.000000 0.000000 0.000000 0.000000 0.000000 0.000000 9.393145 -3.447173 35.122488 -13.645276 13.037589 -1.936104 28.084690 19.744458 -4.477769 0.000000 0.000000 0.000000 -3.007371 -8.128928 31.676538 13.916669 11.218452 0.837912 -0.609060 -4.381812 0.774304 0.000000 0.000000 0.000000
3.334652 82.266529 315.145453 -0.709599 -2.150886 -32.900834 -0.459517 -0.304374 32.825099 0.764512 0.177234 0.005134 -0.511262 3.779801 -0.127245 0.000000 0.000000 0.000000 44.510470 38.879705 -28.109831 17.081883 -5.585697 1.815820 10.207712 -14.037562 -6.985507 -21.423225 -7.243653 10.764120 0.000000 0.000000 0.000000 0.000000 0.000000 0.000000 0.811693 -7.481708 -1.580656 -18.675951 -14.747959 -5.993663 2.741242 19.415694 7.254928 31.803490 32.913657 -3.538667 0.000000 0.000000 0.000000 0.000000 0.000000 0.000000 9.505173 -4.084613 34.540799 -13.414318 13.327660 -1.918092 27.827798 19.051756 -4.612672 0.000000 0.000000 0.000000 -1.814445 -6.592970 31.467773 10.023062 8.762519 0.953381 1.996532 -3.432837 1.482778 0.000000 0.000000 0.000000
